<svg xmlns="http://www.w3.org/2000/svg" width="960" height="520" viewBox="0 0 960 520" role="img" aria-labelledby="title desc">
  <title id="title">Demande locale de deratisation</title>
  <desc id="desc">Illustration sobre d'une maison avec garage, jardin et indices discrets de passage.</desc>
  <rect width="960" height="520" fill="#F6F1E8"/>
  <path d="M0 390c78-36 158-42 240-18 101 30 206 25 316-18 139-55 275-39 404 25v141H0Z" fill="#DCE8D8"/>
  <path d="M118 346c42-68 102-107 180-116 83-10 155 21 224 49 96 38 187 36 279 5 31-10 61-13 89-8v169H118Z" fill="#E8DDC8"/>
  <g transform="translate(210 150)">
    <path d="M24 128 242 8l218 120v204H24Z" fill="#FFFFFF" stroke="#1F4D3A" stroke-width="6"/>
    <path d="M0 134 242 0l242 134" fill="none" stroke="#1F4D3A" stroke-width="18" stroke-linecap="round" stroke-linejoin="round"/>
    <rect x="67" y="168" width="104" height="76" fill="#EAF1EC" stroke="#1F4D3A" stroke-width="5"/>
    <path d="M119 168v76M67 206h104" stroke="#1F4D3A" stroke-width="4"/>
    <rect x="296" y="178" width="104" height="154" fill="#D5C29F" stroke="#1F4D3A" stroke-width="5"/>
    <path d="M296 254h104" stroke="#1F4D3A" stroke-width="5"/>
  </g>
  <g transform="translate(103 304)">
    <rect x="0" y="58" width="224" height="116" fill="#EFE5D3" stroke="#1F4D3A" stroke-width="6"/>
    <path d="M30 92h96v82H30Z" fill="#C8B590" stroke="#1F4D3A" stroke-width="5"/>
    <path d="M30 122h96" stroke="#1F4D3A" stroke-width="4"/>
    <path d="M156 86h42v88h-42Z" fill="#FFFDF8" stroke="#1F4D3A" stroke-width="5"/>
  </g>
  <g fill="#1F4D3A" opacity=".82">
    <circle cx="142" cy="438" r="5"/>
    <circle cx="170" cy="429" r="4"/>
    <circle cx="197" cy="442" r="5"/>
    <circle cx="229" cy="431" r="4"/>
    <ellipse cx="746" cy="418" rx="24" ry="11"/>
    <circle cx="774" cy="414" r="7"/>
    <path d="M724 412c-16-8-34-7-49 3" fill="none" stroke="#1F4D3A" stroke-width="5" stroke-linecap="round"/>
    <path d="M788 414h17" stroke="#1F4D3A" stroke-width="4" stroke-linecap="round"/>
  </g>
  <g transform="translate(626 82)">
    <rect width="228" height="132" rx="8" fill="#FFFFFF" stroke="#1F4D3A" stroke-width="5"/>
    <path d="M34 42h160M34 70h126M34 98h86" stroke="#1F4D3A" stroke-width="8" stroke-linecap="round"/>
    <circle cx="184" cy="94" r="18" fill="#E86A33"/>
    <path d="m176 94 6 6 13-17" fill="none" stroke="#fff" stroke-width="5" stroke-linecap="round" stroke-linejoin="round"/>
  </g>
  <circle cx="118" cy="116" r="32" fill="#F2C94C" opacity=".8"/>
</svg>
