<svg xmlns="http://www.w3.org/2000/svg" width="960" height="520" viewBox="0 0 960 520" role="img" aria-labelledby="title desc">
  <title id="title">Demande locale pour guepes et frelons</title>
  <desc id="desc">Illustration sobre d'un jardin, d'une terrasse et d'un nid signale a distance.</desc>
  <rect width="960" height="520" fill="#F6F1E8"/>
  <path d="M0 374c104-42 205-45 302-10 91 33 187 31 287-6 129-49 253-37 371 33v129H0Z" fill="#DCE8D8"/>
  <g transform="translate(146 154)">
    <rect x="22" y="114" width="280" height="142" fill="#FFFDF8" stroke="#1F4D3A" stroke-width="6"/>
    <path d="M0 120 162 28l162 92" fill="#1F4D3A"/>
    <rect x="68" y="154" width="76" height="62" fill="#EAF1EC" stroke="#1F4D3A" stroke-width="5"/>
    <rect x="190" y="154" width="56" height="102" fill="#D5C29F" stroke="#1F4D3A" stroke-width="5"/>
  </g>
  <g transform="translate(574 126)">
    <path d="M110 0c-38 50-43 106-14 166 15 31 13 62-6 94" fill="none" stroke="#1F4D3A" stroke-width="9" stroke-linecap="round"/>
    <path d="M42 94c45-33 90-33 135 0" fill="none" stroke="#1F4D3A" stroke-width="8" stroke-linecap="round"/>
    <path d="M58 132c36-25 72-25 108 0" fill="none" stroke="#1F4D3A" stroke-width="7" stroke-linecap="round"/>
    <ellipse cx="110" cy="180" rx="54" ry="62" fill="#D9CAB1" stroke="#1F4D3A" stroke-width="6"/>
    <path d="M68 162h84M64 188h92M75 214h70" stroke="#1F4D3A" stroke-width="5" stroke-linecap="round" opacity=".55"/>
  </g>
  <g fill="#1F4D3A" opacity=".88">
    <ellipse cx="760" cy="222" rx="13" ry="7"/>
    <path d="M748 222h-16M772 222h16M754 216l-11-10M766 216l11-10M754 228l-11 10M766 228l11 10" stroke="#1F4D3A" stroke-width="3" stroke-linecap="round"/>
    <ellipse cx="480" cy="290" rx="12" ry="6"/>
    <path d="M469 290h-15M491 290h15M474 285l-10-8M486 285l10-8M474 295l-10 8M486 295l10 8" stroke="#1F4D3A" stroke-width="3" stroke-linecap="round"/>
  </g>
  <g transform="translate(108 382)">
    <rect width="252" height="20" rx="10" fill="#1F4D3A" opacity=".22"/>
    <path d="M24 0v-54M76 0v-74M132 0v-48M204 0v-64" stroke="#1F4D3A" stroke-width="8" stroke-linecap="round" opacity=".35"/>
  </g>
  <g transform="translate(360 382)">
    <rect width="250" height="54" rx="8" fill="#E8DDC8" stroke="#1F4D3A" stroke-width="5"/>
    <path d="M30 27h190" stroke="#1F4D3A" stroke-width="6" stroke-linecap="round"/>
  </g>
  <circle cx="124" cy="100" r="32" fill="#F2C94C" opacity=".75"/>
</svg>
