<svg xmlns="http://www.w3.org/2000/svg" viewBox="0 0 720 420" role="img" aria-labelledby="title desc">
  <title id="title">Pigeons et goélands</title>
  <desc id="desc">Illustration sobre d'une toiture avec oiseaux et traces discrètes.</desc>
  <rect width="720" height="420" rx="24" fill="#F6F1E8"/>
  <path d="M100 260 360 110l260 150v44H100z" fill="#1F4D3A"/>
  <path d="M150 260h420v74H150z" fill="#fff" stroke="#1F4D3A" stroke-opacity=".18"/>
  <path d="M170 278h380" stroke="#E86A33" stroke-width="8" stroke-linecap="round" opacity=".65"/>
  <path d="M244 168c34-34 80-30 112 6-42-3-70 7-112-6ZM400 176c32-30 72-25 102 7-38-4-64 5-102-7Z" fill="#fff" stroke="#1F2933" stroke-width="5" stroke-linejoin="round"/>
  <circle cx="282" cy="160" r="7" fill="#1F2933"/><circle cx="432" cy="169" r="7" fill="#1F2933"/>
  <path d="M246 332c10-12 22-12 32 0M318 332c10-12 22-12 32 0M472 332c10-12 22-12 32 0" fill="none" stroke="#51606D" stroke-width="4" stroke-linecap="round"/>
  <text x="70" y="66" fill="#1F2933" font-family="Arial, sans-serif" font-size="28" font-weight="800">Toitures et balcons</text>
  <text x="70" y="99" fill="#51606D" font-family="Arial, sans-serif" font-size="17">Fientes, nids, accès bâtiment</text>
</svg>
