<svg xmlns="http://www.w3.org/2000/svg" viewBox="0 0 960 540" role="img" aria-labelledby="title desc">
  <title id="title">Infographie pour identifier un nuisible dans le Var</title>
  <desc id="desc">Grille sobre de signes utiles : traces, piqûres, crottes, nid, bois et photo.</desc>
  <rect width="960" height="540" rx="28" fill="#F6F1E8"/>
  <path d="M72 100c76-50 166-72 264-65 82 6 140 35 215 38 103 4 177-41 273-21 58 12 95 45 103 89 12 67-48 122-98 153-86 54-165 34-261 68-92 33-125 102-230 114-114 13-233-40-286-132C4 261 0 148 72 100Z" fill="#1F4D3A" opacity=".08"/>
  <text x="70" y="86" fill="#1F2933" font-family="Arial, sans-serif" font-size="34" font-weight="800">Identifier les signes utiles</text>
  <text x="70" y="122" fill="#51606D" font-family="Arial, sans-serif" font-size="18">Nuisibles fréquents dans le Var</text>
  <g transform="translate(70 165)">
    <g>
      <rect width="240" height="130" rx="12" fill="#FFFFFF" stroke="#1F4D3A" stroke-opacity=".18"/>
      <circle cx="52" cy="55" r="24" fill="#F2C94C"/>
      <path d="M39 58h27M47 46l12 24M59 46 47 70" stroke="#1F2933" stroke-width="5" stroke-linecap="round"/>
      <text x="92" y="50" fill="#1F2933" font-family="Arial, sans-serif" font-size="19" font-weight="800">Crottes</text>
      <text x="92" y="78" fill="#51606D" font-family="Arial, sans-serif" font-size="15">Rats, souris</text>
    </g>
    <g transform="translate(275 0)">
      <rect width="240" height="130" rx="12" fill="#FFFFFF" stroke="#1F4D3A" stroke-opacity=".18"/>
      <circle cx="52" cy="55" r="24" fill="#E86A33" opacity=".9"/>
      <path d="M39 56c17-19 32-19 49 0-17 19-32 19-49 0Z" fill="#fff"/>
      <circle cx="63" cy="56" r="6" fill="#1F2933"/>
      <text x="92" y="50" fill="#1F2933" font-family="Arial, sans-serif" font-size="19" font-weight="800">Piqûres</text>
      <text x="92" y="78" fill="#51606D" font-family="Arial, sans-serif" font-size="15">Punaises, moustiques</text>
    </g>
    <g transform="translate(550 0)">
      <rect width="240" height="130" rx="12" fill="#FFFFFF" stroke="#1F4D3A" stroke-opacity=".18"/>
      <circle cx="52" cy="55" r="24" fill="#1F4D3A"/>
      <path d="M38 64c10-22 37-33 58-18-7 28-34 38-58 18Z" fill="#fff"/>
      <text x="92" y="50" fill="#1F2933" font-family="Arial, sans-serif" font-size="19" font-weight="800">Nid</text>
      <text x="92" y="78" fill="#51606D" font-family="Arial, sans-serif" font-size="15">Guêpes, frelons</text>
    </g>
  </g>
  <g transform="translate(70 330)">
    <g>
      <rect width="240" height="130" rx="12" fill="#FFFFFF" stroke="#1F4D3A" stroke-opacity=".18"/>
      <circle cx="52" cy="55" r="24" fill="#1F4D3A" opacity=".88"/>
      <path d="M31 57h42M42 45h44M42 69h38" stroke="#fff" stroke-width="7" stroke-linecap="round"/>
      <text x="92" y="50" fill="#1F2933" font-family="Arial, sans-serif" font-size="19" font-weight="800">Traces</text>
      <text x="92" y="78" fill="#51606D" font-family="Arial, sans-serif" font-size="15">Cafards, passages</text>
    </g>
    <g transform="translate(275 0)">
      <rect width="240" height="130" rx="12" fill="#FFFFFF" stroke="#1F4D3A" stroke-opacity=".18"/>
      <circle cx="52" cy="55" r="24" fill="#F2C94C"/>
      <path d="M34 46h58v22H34zM44 39h38M44 76h38" fill="none" stroke="#1F2933" stroke-width="5" stroke-linecap="round"/>
      <text x="92" y="50" fill="#1F2933" font-family="Arial, sans-serif" font-size="19" font-weight="800">Bois</text>
      <text x="92" y="78" fill="#51606D" font-family="Arial, sans-serif" font-size="15">Termites</text>
    </g>
    <g transform="translate(550 0)">
      <rect width="240" height="130" rx="12" fill="#FFFFFF" stroke="#1F4D3A" stroke-opacity=".18"/>
      <circle cx="52" cy="55" r="24" fill="#E86A33"/>
      <rect x="34" y="40" width="36" height="28" rx="4" fill="#fff"/>
      <circle cx="52" cy="54" r="7" fill="#1F2933"/>
      <text x="92" y="50" fill="#1F2933" font-family="Arial, sans-serif" font-size="19" font-weight="800">Photo</text>
      <text x="92" y="78" fill="#51606D" font-family="Arial, sans-serif" font-size="15">Facultative</text>
    </g>
  </g>
</svg>
