<svg xmlns="http://www.w3.org/2000/svg" viewBox="0 0 720 420" role="img" aria-labelledby="title desc">
  <title id="title">Moustique tigre</title>
  <desc id="desc">Illustration sobre d'un jardin avec point d'eau et moustique stylisé.</desc>
  <rect width="720" height="420" rx="24" fill="#F6F1E8"/>
  <path d="M0 300c110-64 199-43 286-10 112 42 232 13 434-54v184H0z" fill="#1F4D3A" opacity=".16"/>
  <circle cx="146" cy="266" r="58" fill="#fff" stroke="#1F4D3A" stroke-opacity=".16"/>
  <path d="M95 266c34 22 70 22 104 0-34-22-70-22-104 0Z" fill="#8CC9D6"/>
  <path d="M400 148c40-35 86-28 119 18-45 18-82 12-119-18Z" fill="#fff" stroke="#1F4D3A" stroke-width="5"/>
  <path d="M392 194c42 34 88 25 120-22-45-16-83-8-120 22Z" fill="#fff" stroke="#1F4D3A" stroke-width="5"/>
  <ellipse cx="380" cy="172" rx="38" ry="15" fill="#1F2933"/>
  <path d="M342 172h-54M364 153l-26-32M369 191l-34 34M395 153l32-29M400 191l34 30" stroke="#1F2933" stroke-width="5" stroke-linecap="round"/>
  <path d="M366 164h28M360 173h42M366 182h28" stroke="#fff" stroke-width="3"/>
  <text x="74" y="66" fill="#1F2933" font-family="Arial, sans-serif" font-size="28" font-weight="800">Piqûres en journée</text>
  <text x="74" y="99" fill="#51606D" font-family="Arial, sans-serif" font-size="17">Jardin, terrasse, eaux stagnantes</text>
</svg>
