<svg xmlns="http://www.w3.org/2000/svg" viewBox="0 0 720 420" role="img" aria-labelledby="title desc">
  <title id="title">Photo de nuisible facultative</title>
  <desc id="desc">Illustration sobre d'un téléphone envoyant une photo de traces visibles.</desc>
  <rect width="720" height="420" rx="24" fill="#F6F1E8"/>
  <rect x="242" y="62" width="236" height="296" rx="34" fill="#1F2933"/>
  <rect x="265" y="96" width="190" height="218" rx="16" fill="#fff"/>
  <circle cx="360" cy="334" r="10" fill="#F2C94C"/>
  <rect x="288" y="124" width="144" height="96" rx="12" fill="#E9F0EC"/>
  <circle cx="326" cy="164" r="18" fill="#E86A33"/>
  <path d="M292 210c36-36 58-39 86-8 16-20 31-22 52 8" fill="none" stroke="#1F4D3A" stroke-width="7" stroke-linecap="round"/>
  <path d="M302 252h116M302 278h82" stroke="#51606D" stroke-width="9" stroke-linecap="round"/>
  <path d="M500 140h78M500 178h52M142 156h72M164 196h50" stroke="#1F4D3A" stroke-width="10" stroke-linecap="round" opacity=".28"/>
  <text x="76" y="62" fill="#1F2933" font-family="Arial, sans-serif" font-size="28" font-weight="800">Photo utile</text>
  <text x="76" y="95" fill="#51606D" font-family="Arial, sans-serif" font-size="17">Sans visage ni document personnel</text>
</svg>
