<svg xmlns="http://www.w3.org/2000/svg" viewBox="0 0 720 420" role="img" aria-labelledby="title desc">
  <title id="title">Termites et xylophages</title>
  <desc id="desc">Illustration sobre de bois et charpente avec indices discrets.</desc>
  <rect width="720" height="420" rx="24" fill="#F6F1E8"/>
  <rect x="70" y="92" width="580" height="236" rx="18" fill="#fff" stroke="#1F4D3A" stroke-opacity=".18"/>
  <path d="M130 265h460v42H130zM165 112h70v165h-70zM315 112h70v165h-70zM485 112h70v165h-70z" fill="#C58A52"/>
  <path d="M130 145h460M130 204h460M130 265h460" stroke="#8A5A34" stroke-width="6" opacity=".45"/>
  <path d="M205 152c25 26 18 62-13 78M355 135c-22 32-20 61 7 86M525 152c30 28 28 58-4 88" fill="none" stroke="#5B3B24" stroke-width="5" stroke-linecap="round" opacity=".75"/>
  <circle cx="245" cy="244" r="5" fill="#1F2933"/><circle cx="258" cy="252" r="4" fill="#1F2933"/><circle cx="273" cy="238" r="4" fill="#1F2933"/>
  <path d="M86 72h142" stroke="#E86A33" stroke-width="9" stroke-linecap="round"/>
  <text x="86" y="52" fill="#1F2933" font-family="Arial, sans-serif" font-size="26" font-weight="800">Bois fragilisé</text>
</svg>
